<svg xmlns="http://www.w3.org/2000/svg" viewBox="0 0 352 19.4"><path d="M36.1.8V17H50l-1.9 1.8h-15V.8h3zM60 .8V17h13.9L72 18.8H57V.8h3zm61.4 0l-11.6 10.5v7.5h-3.1v-7.5L94.9.8h4l9.3 8.3 9.2-8.3h4zm-98.8 18h3.3L12.9 0 0 18.8h3.4l2.9-4.5h13.3l3 4.5zM12.9 4.1l5.4 8.2H7.6l5.3-8.2zM321.6.7l-10.1 18.6-8.8-14.2-8.7 14.3L283.8.7h3.1l7.2 13.6L302.7.2l8.6 14L318.6.7h3zM140.9.3C132.6.3 126 4 126 9.8c0 5.5 6.7 9.5 14.9 9.5s14.9-3.8 14.9-9.5S149.1.3 140.9.3m0 16.8c-6.4 0-11.6-3-11.6-7.3s5.2-7.3 11.6-7.3 11.6 3.3 11.6 7.3c0 4.3-5.2 7.3-11.6 7.3M263.3.3c-8.2 0-14.9 3.8-14.9 9.5 0 5.5 6.7 9.5 14.9 9.5s14.9-3.8 14.9-9.5c.1-5.7-6.6-9.5-14.9-9.5m0 16.8c-6.4 0-11.6-3-11.6-7.3s5.2-7.3 11.6-7.3S275 5.7 275 9.8c0 4.3-5.2 7.3-11.7 7.3m-86.8 2.1c-11.1 0-11.4-6.1-11.4-6.5V.9h3v11.5c0 1.2.8 4.7 8.3 4.7s8.3-3.5 8.3-4.7V.9h3v11.7c.1.5-.1 6.6-11.2 6.6M352 .9v18.4L332.6 5.5v13.4h-2.9V.4l19.5 13.9V.9h2.8zM210.4 12.6c4.2-.3 8.7-2.1 8.7-6 0-4.6-6.6-6.3-13.2-6-2.4.1-4.9.4-7.3.9v17.4h3V3c1.4-.3 2.9-.4 4.4-.5 5.1-.1 9.9.9 9.9 4.1 0 4.2-9.5 4.6-11.8 4v.7l12.6 7.5h5.1l-11.4-6.2z"/></svg>